<?xml version="1.0" encoding="UTF-8" standalone="no"?>
<!-- Generator: Adobe Illustrator 16.0.0, SVG Export Plug-In . SVG Version: 6.00 Build 0)  -->

<svg
   xmlns:dc="http://purl.org/dc/elements/1.1/"
   xmlns:cc="http://creativecommons.org/ns#"
   xmlns:rdf="http://www.w3.org/1999/02/22-rdf-syntax-ns#"
   xmlns:svg="http://www.w3.org/2000/svg"
   xmlns="http://www.w3.org/2000/svg"
   xmlns:sodipodi="http://sodipodi.sourceforge.net/DTD/sodipodi-0.dtd"
   xmlns:inkscape="http://www.inkscape.org/namespaces/inkscape"
   version="1.1"
   id="Ebene_1"
   x="0px"
   y="0px"
   width="80"
   height="80"
   viewBox="0 0 80 80"
   xml:space="preserve"
   sodipodi:docname="doc_info.svg"
   inkscape:version="0.92.4 (5da689c313, 2019-01-14)"><metadata
   id="metadata38"><rdf:RDF><cc:Work
       rdf:about=""><dc:format>image/svg+xml</dc:format><dc:type
         rdf:resource="http://purl.org/dc/dcmitype/StillImage" /><dc:title></dc:title></cc:Work></rdf:RDF></metadata><defs
   id="defs36" /><sodipodi:namedview
   pagecolor="#ffffff"
   bordercolor="#666666"
   borderopacity="1"
   objecttolerance="10"
   gridtolerance="10"
   guidetolerance="10"
   inkscape:pageopacity="0"
   inkscape:pageshadow="2"
   inkscape:window-width="3200"
   inkscape:window-height="1721"
   id="namedview34"
   showgrid="false"
   inkscape:zoom="9.0521945"
   inkscape:cx="49.338531"
   inkscape:cy="4.0668748"
   inkscape:window-x="-9"
   inkscape:window-y="-9"
   inkscape:window-maximized="1"
   inkscape:current-layer="Ebene_1" />
<g
   id="g30"
   transform="matrix(0.92998638,0,0,0.92998638,2.006458,6.3548397)">
	<g
   id="g16">
		<path
   d="m 27.282,31.138 c 0.855,-0.13 1.873,-0.229 2.986,-0.229 2.018,0 3.455,0.473 4.407,1.37 0.969,0.897 1.534,2.169 1.534,3.948 0,1.794 -0.549,3.263 -1.566,4.273 -1.017,1.028 -2.696,1.582 -4.811,1.582 -1.001,0 -1.841,-0.049 -2.551,-0.13 V 31.138 Z m 1.405,9.722 c 0.355,0.065 0.872,0.081 1.421,0.081 3.002,0 4.633,-1.696 4.633,-4.665 0.016,-2.594 -1.437,-4.241 -4.407,-4.241 -0.727,0 -1.275,0.065 -1.647,0.147 z"
   id="path2"
   inkscape:connector-curvature="0" />
		<path
   d="m 45.12,37.973 c 0,2.92 -2.002,4.192 -3.891,4.192 -2.115,0 -3.746,-1.566 -3.746,-4.062 0,-2.643 1.711,-4.192 3.875,-4.192 2.245,0 3.762,1.648 3.762,4.062 z m -6.199,0.082 c 0,1.729 0.985,3.034 2.373,3.034 1.356,0 2.373,-1.289 2.373,-3.067 0,-1.337 -0.662,-3.034 -2.341,-3.034 -1.679,0 -2.405,1.566 -2.405,3.067 z"
   id="path4"
   inkscape:connector-curvature="0" />
		<path
   d="m 52.481,41.692 c -0.371,0.195 -1.195,0.456 -2.244,0.456 -2.357,0 -3.891,-1.614 -3.891,-4.028 0,-2.431 1.646,-4.193 4.197,-4.193 0.84,0 1.582,0.212 1.97,0.408 l -0.323,1.109 c -0.339,-0.196 -0.871,-0.375 -1.646,-0.375 -1.792,0 -2.761,1.338 -2.761,2.985 0,1.827 1.162,2.952 2.712,2.952 0.808,0 1.341,-0.212 1.744,-0.392 z"
   id="path6"
   inkscape:connector-curvature="0" />
		<path
   d="M 55.597,30.991 V 41.985 H 54.193 V 30.991 Z"
   id="path8"
   inkscape:connector-curvature="0" />
		<path
   d="m 58.163,36.228 c 0,-0.816 -0.017,-1.484 -0.065,-2.137 h 1.26 l 0.08,1.305 h 0.033 c 0.387,-0.75 1.291,-1.484 2.583,-1.484 1.081,0 2.76,0.652 2.76,3.36 v 4.714 h -1.42 v -4.551 c 0,-1.272 -0.469,-2.333 -1.809,-2.333 -0.937,0 -1.663,0.668 -1.905,1.468 -0.064,0.18 -0.097,0.424 -0.097,0.669 v 4.746 h -1.42 z"
   id="path10"
   inkscape:connector-curvature="0" />
		<path
   d="M 67.267,41.985 V 35.183 H 66.169 V 34.09 h 1.098 v -0.375 c 0,-1.109 0.242,-2.121 0.904,-2.757 0.533,-0.522 1.243,-0.734 1.905,-0.734 0.5,0 0.937,0.114 1.211,0.229 l -0.194,1.109 c -0.21,-0.098 -0.5,-0.179 -0.904,-0.179 -1.21,0 -1.517,1.077 -1.517,2.284 v 0.424 h 1.889 v 1.093 h -1.889 v 6.802 h -1.405 z"
   id="path12"
   inkscape:connector-curvature="0" />
		<path
   d="m 78.696,37.973 c 0,2.92 -2.002,4.192 -3.891,4.192 -2.114,0 -3.745,-1.566 -3.745,-4.062 0,-2.643 1.711,-4.192 3.874,-4.192 2.245,0 3.762,1.648 3.762,4.062 z m -6.199,0.082 c 0,1.729 0.985,3.034 2.373,3.034 1.356,0 2.373,-1.289 2.373,-3.067 0,-1.337 -0.661,-3.034 -2.341,-3.034 -1.678,0 -2.405,1.566 -2.405,3.067 z"
   id="path14"
   inkscape:connector-curvature="0" />
	</g>
	<g
   id="g22">
		<path
   style="fill:none;stroke:#000000;stroke-width:1.5;stroke-miterlimit:10"
   d="m 48.209,58.062 14.01,1.906 c 0,0 0.195,-0.793 0.176,-1.061 -0.038,-0.531 -0.649,-2.057 -0.649,-2.057 0,0 -1.192,-1.551 -1.739,-1.934 -0.728,-0.51 -3.439,-0.875 -3.439,-0.875 l -9.387,-1.344 -2.529,-1.77 c 0,0 -5.183,-1.896 -7.055,-1.979 -1.862,-0.08 -5.561,0.336 -6.878,1.373 -1.607,1.26 -6.027,2.299 -6.027,2.299 l 2.184,13.8 c 0,0 3.414,-1.725 4.592,-2.156 0.811,-0.299 3.368,-0.764 3.368,-0.764 l 1.078,-0.057 13.346,3.918 c 0,0 3.276,1.072 4.014,1.09 0.775,0.018 3.566,-0.479 3.566,-0.479 l 23.631,-9.927 c 0,0 0.348,-0.07 0.377,-0.16 0.188,-0.555 -1.024,-1.514 -1.514,-1.9 -0.496,-0.393 -1.676,-1.041 -2.329,-1.131 -0.715,-0.098 -2.829,0.494 -2.829,0.494 l -0.414,0.148 -11.541,4.469"
   id="path18"
   inkscape:connector-curvature="0" />
		<path
   style="fill:none;stroke:#000000;stroke-width:1.5;stroke-miterlimit:10"
   d="m 52.814,53.413 c 0,0 7.262,-2.045 9.763,-1.947 0.724,0.031 2.134,0.469 2.769,0.785 0.477,0.238 1.656,1.279 1.656,1.279 l 0.039,0.305 -6.143,2.074 6.633,-2.24 c 0,0 1.454,-0.34 1.916,-0.402 0.527,-0.07 1.236,-0.322 1.957,-0.07 0.793,0.273 2.068,2.404 2.068,2.404"
   id="path20"
   inkscape:connector-curvature="0" />
	</g>
	<g
   id="g28">
		<path
   style="fill:none;stroke:#000000;stroke-width:1.5;stroke-miterlimit:10"
   d="m 22.485,22.556 9.994,-10.422 c 0,0 0.584,0.541 0.714,0.777 0.258,0.47 0.602,2.13 0.602,2.13 0,0 -0.098,2.047 -0.32,2.712 -0.296,0.885 -2.234,2.898 -2.234,2.898 l -6.66,7.041 -1.031,3.073 c 0,0 -3.051,4.854 -4.482,6.101 -1.423,1.238 -4.558,3.223 -6.158,3.188 -1.948,-0.045 -5.99,1.871 -5.99,1.871 L 1.161,29.005 c 0,0 3.622,-0.707 4.784,-1.088 0.8,-0.262 3.064,-1.483 3.064,-1.483 l 0.879,-0.632 8.381,-11.688 c 0,0 2,-2.959 2.569,-3.44 0.599,-0.505 3.065,-1.846 3.065,-1.846 L 47.884,2.242 c 0,0 0.311,-0.162 0.383,-0.105 0.449,0.346 0.015,1.914 -0.161,2.546 -0.178,0.64 -0.753,1.926 -1.22,2.413 -0.51,0.531 -2.496,1.366 -2.496,1.366 L 43.985,8.6 32.479,12.134"
   id="path24"
   inkscape:connector-curvature="0" />
		<path
   style="fill:none;stroke:#000000;stroke-width:1.5;stroke-miterlimit:10"
   d="m 28.629,23.543 c 0,0 6.823,-2.865 8.738,-4.523 0.555,-0.48 1.427,-1.736 1.754,-2.4 0.247,-0.5 0.612,-2.112 0.612,-2.112 l -0.135,-0.281 -5.959,2.135 6.436,-2.305 c 0,0 1.327,-0.634 1.726,-0.873 0.455,-0.272 1.148,-0.508 1.58,-1.172 0.474,-0.73 0.324,-3.316 0.324,-3.316"
   id="path26"
   inkscape:connector-curvature="0" />
	</g>
</g>
<rect
   id="_x3C_Slice_x3E__1_"
   style="fill:none"
   width="86"
   height="71"
   x="0"
   y="6.260006" />
</svg>